<?xml version="1.0" encoding="UTF-8" standalone="no"?>
<svg
   xmlns:dc="http://purl.org/dc/elements/1.1/"
   xmlns:cc="http://creativecommons.org/ns#"
   xmlns:rdf="http://www.w3.org/1999/02/22-rdf-syntax-ns#"
   xmlns:svg="http://www.w3.org/2000/svg"
   xmlns="http://www.w3.org/2000/svg"
   xmlns:sodipodi="http://sodipodi.sourceforge.net/DTD/sodipodi-0.dtd"
   xmlns:inkscape="http://www.inkscape.org/namespaces/inkscape"
   version="1.1"
   x="0px"
   y="0px"
   width="100px"
   height="100px"
   viewBox="0 0 100 100"
   enable-background="new 0 0 100 100"
   xml:space="preserve"
   id="svg3173"
   inkscape:version="0.48.2 r9819"
   sodipodi:docname="robot.svg"><metadata
   id="metadata3321"><rdf:RDF><cc:Work
       rdf:about=""><dc:format>image/svg+xml</dc:format><dc:type
         rdf:resource="http://purl.org/dc/dcmitype/StillImage" /><dc:title></dc:title></cc:Work></rdf:RDF></metadata><defs
   id="defs3319" /><sodipodi:namedview
   pagecolor="#ffffff"
   bordercolor="#666666"
   borderopacity="1"
   objecttolerance="10"
   gridtolerance="10"
   guidetolerance="10"
   inkscape:pageopacity="0"
   inkscape:pageshadow="2"
   inkscape:window-width="1531"
   inkscape:window-height="1099"
   id="namedview3317"
   showgrid="false"
   inkscape:zoom="6.91"
   inkscape:cx="26.29017"
   inkscape:cy="45.703763"
   inkscape:window-x="0"
   inkscape:window-y="0"
   inkscape:window-maximized="0"
   inkscape:current-layer="svg3173" />

<g
   id="Your_Icon"
   style="fill:#2e2e2c;fill-opacity:1">
	<g
   id="g3285"
   style="fill:#2e2e2c;fill-opacity:1">
		<g
   id="g3287"
   style="fill:#2e2e2c;fill-opacity:1">
			<g
   id="g3289"
   style="fill:#2e2e2c;fill-opacity:1">
				<path
   clip-rule="evenodd"
   d="M85.405,30h-70.34C7.849,30,2,36.191,2,43.556V81h96V43.556      C98,36.191,92.622,30,85.405,30z M28.614,60.425c-4.749,0-8.598-3.929-8.598-8.775c0-4.846,3.849-8.776,8.598-8.776      s8.597,3.93,8.597,8.776C37.211,56.496,33.363,60.425,28.614,60.425z M72.585,60.425c-4.748,0-8.598-3.929-8.598-8.775      c0-4.846,3.85-8.776,8.598-8.776c4.747,0,8.597,3.93,8.597,8.776C81.182,56.496,77.332,60.425,72.585,60.425z"
   id="path3291"
   style="fill:#2e2e2c;fill-opacity:1" />
			</g>
		</g>
	</g>
	<g
   id="g3293"
   style="fill:#2e2e2c;fill-opacity:1">
		<g
   id="g3295"
   style="fill:#2e2e2c;fill-opacity:1">
			<g
   id="g3297"
   style="fill:#2e2e2c;fill-opacity:1">
				<path
   clip-rule="evenodd"
   d="M20.169,84.443h59.396c1.704,0,3.083,1.409,3.083,3.147      c0,1.739-1.379,3.148-3.083,3.148H20.169c-1.703,0-3.084-1.409-3.084-3.148C17.085,85.853,18.466,84.443,20.169,84.443z"
   id="path3299"
   style="fill:#2e2e2c;fill-opacity:1" />
			</g>
		</g>
	</g>
	<g
   id="g3301"
   style="fill:#2e2e2c;fill-opacity:1">
		<g
   id="g3303"
   style="fill:#2e2e2c;fill-opacity:1">
			<g
   id="g3305"
   style="fill:#2e2e2c;fill-opacity:1">
				<path
   clip-rule="evenodd"
   d="M30.213,93.649h39.84c1.704,0,3.084,1.41,3.084,3.149s-1.38,3.147-3.084,3.147      h-39.84c-1.703,0-3.084-1.408-3.084-3.147S28.51,93.649,30.213,93.649z"
   id="path3307"
   style="fill:#2e2e2c;fill-opacity:1" />
			</g>
		</g>
	</g>
	<g
   id="g3309"
   style="fill:#2e2e2c;fill-opacity:1">
		<g
   id="g3311"
   style="fill:#2e2e2c;fill-opacity:1">
			<g
   id="g3313"
   style="fill:#2e2e2c;fill-opacity:1">
				<path
   clip-rule="evenodd"
   d="M57.212,6.41c0-3.54-2.721-6.41-6.19-6.41c-3.466,0-6.021,2.87-6.021,6.41      c0,2.201,0.999,4.142,2.999,5.296v10.907c0,1.869,1.171,3.383,3,3.383c1.831,0,3-1.514,3-3.383V11.888      C56,10.764,57.212,8.735,57.212,6.41z"
   id="path3315"
   style="fill:#2e2e2c;fill-opacity:1" />
			</g>
		</g>
	</g>
</g>
</svg>