<?xml version="1.0" encoding="UTF-8" standalone="no"?>
<svg
   xmlns:dc="http://purl.org/dc/elements/1.1/"
   xmlns:cc="http://creativecommons.org/ns#"
   xmlns:rdf="http://www.w3.org/1999/02/22-rdf-syntax-ns#"
   xmlns:svg="http://www.w3.org/2000/svg"
   xmlns="http://www.w3.org/2000/svg"
   xmlns:sodipodi="http://sodipodi.sourceforge.net/DTD/sodipodi-0.dtd"
   xmlns:inkscape="http://www.inkscape.org/namespaces/inkscape"
   version="1.1"
   x="0px"
   y="0px"
   width="300"
   height="300"
   viewBox="0 0 300 300"
   enable-background="new 0 0 100 100"
   xml:space="preserve"
   id="svg3282"
   inkscape:version="0.48.2 r9819"
   sodipodi:docname="hex-robot-plain.svg"><metadata
   id="metadata3430"><rdf:RDF><cc:Work
       rdf:about=""><dc:format>image/svg+xml</dc:format><dc:type
         rdf:resource="http://purl.org/dc/dcmitype/StillImage" /><dc:title></dc:title></cc:Work></rdf:RDF></metadata><defs
   id="defs3428" /><sodipodi:namedview
   pagecolor="#ffffff"
   bordercolor="#666666"
   borderopacity="1"
   objecttolerance="10"
   gridtolerance="10"
   guidetolerance="10"
   inkscape:pageopacity="0"
   inkscape:pageshadow="2"
   inkscape:window-width="1403"
   inkscape:window-height="1075"
   id="namedview3426"
   showgrid="false"
   inkscape:zoom="2.2325"
   inkscape:cx="125.37477"
   inkscape:cy="138.68528"
   inkscape:window-x="358"
   inkscape:window-y="0"
   inkscape:window-maximized="0"
   inkscape:current-layer="svg3282" />

<path
   sodipodi:type="star"
   style="fill:#f3df49;fill-opacity:1;fill-rule:evenodd;stroke:#2e2e2c;stroke-width:0.31063297;stroke-linecap:butt;stroke-linejoin:miter;stroke-miterlimit:4;stroke-opacity:1;stroke-dasharray:none"
   id="path3602"
   sodipodi:sides="6"
   sodipodi:cx="102.12766"
   sodipodi:cy="53.19149"
   sodipodi:r1="46.073517"
   sodipodi:r2="39.900837"
   sodipodi:arg1="0.52359878"
   sodipodi:arg2="1.0471976"
   inkscape:flatsided="true"
   inkscape:rounded="0"
   inkscape:randomized="0"
   d="m 142.0285,76.228249 -39.90084,23.036758 -39.900833,-23.036759 0,-46.073516 L 102.12766,7.1179733 142.0285,30.154732 z"
   transform="matrix(3.2454453,0,0,3.244727,-181.44975,-22.591864)" /><g
   id="Your_Icon"
   transform="matrix(1.5692423,0,0,1.5692423,71.537887,43.162078)"
   style="fill:#2e2e2c;fill-opacity:1">
	<g
   id="g3394"
   style="fill:#2e2e2c;fill-opacity:1">
		<g
   id="g3396"
   style="fill:#2e2e2c;fill-opacity:1">
			<g
   id="g3398"
   style="fill:#2e2e2c;fill-opacity:1">
				<path
   clip-rule="evenodd"
   d="M 85.405,30 H 15.065 C 7.849,30 2,36.191 2,43.556 V 81 H 98 V 43.556 C 98,36.191 92.622,30 85.405,30 z M 28.614,60.425 c -4.749,0 -8.598,-3.929 -8.598,-8.775 0,-4.846 3.849,-8.776 8.598,-8.776 4.749,0 8.597,3.93 8.597,8.776 0,4.846 -3.848,8.775 -8.597,8.775 z m 43.971,0 c -4.748,0 -8.598,-3.929 -8.598,-8.775 0,-4.846 3.85,-8.776 8.598,-8.776 4.747,0 8.597,3.93 8.597,8.776 0,4.846 -3.85,8.775 -8.597,8.775 z"
   id="path3400"
   inkscape:connector-curvature="0"
   style="fill-rule:evenodd;fill:#2e2e2c;fill-opacity:1" />
			</g>
		</g>
	</g>
	<g
   id="g3402"
   style="fill:#2e2e2c;fill-opacity:1">
		<g
   id="g3404"
   style="fill:#2e2e2c;fill-opacity:1">
			<g
   id="g3406"
   style="fill:#2e2e2c;fill-opacity:1">
				<path
   clip-rule="evenodd"
   d="m 20.169,84.443 h 59.396 c 1.704,0 3.083,1.409 3.083,3.147 0,1.739 -1.379,3.148 -3.083,3.148 H 20.169 c -1.703,0 -3.084,-1.409 -3.084,-3.148 0,-1.737 1.381,-3.147 3.084,-3.147 z"
   id="path3408"
   inkscape:connector-curvature="0"
   style="fill-rule:evenodd;fill:#2e2e2c;fill-opacity:1" />
			</g>
		</g>
	</g>
	<g
   id="g3410"
   style="fill:#2e2e2c;fill-opacity:1">
		<g
   id="g3412"
   style="fill:#2e2e2c;fill-opacity:1">
			<g
   id="g3414"
   style="fill:#2e2e2c;fill-opacity:1">
				<path
   clip-rule="evenodd"
   d="m 30.213,93.649 h 39.84 c 1.704,0 3.084,1.41 3.084,3.149 0,1.739 -1.38,3.147 -3.084,3.147 h -39.84 c -1.703,0 -3.084,-1.408 -3.084,-3.147 0,-1.739 1.381,-3.149 3.084,-3.149 z"
   id="path3416"
   inkscape:connector-curvature="0"
   style="fill-rule:evenodd;fill:#2e2e2c;fill-opacity:1" />
			</g>
		</g>
	</g>
	<g
   id="g3418"
   style="fill:#2e2e2c;fill-opacity:1">
		<g
   id="g3420"
   style="fill:#2e2e2c;fill-opacity:1">
			<g
   id="g3422"
   style="fill:#2e2e2c;fill-opacity:1">
				<path
   clip-rule="evenodd"
   d="M 57.212,6.41 C 57.212,2.87 54.491,0 51.022,0 47.556,0 45.001,2.87 45.001,6.41 45.001,8.611 46,10.552 48,11.706 v 10.907 c 0,1.869 1.171,3.383 3,3.383 1.831,0 3,-1.514 3,-3.383 V 11.888 c 2,-1.124 3.212,-3.153 3.212,-5.478 z"
   id="path3424"
   inkscape:connector-curvature="0"
   style="fill-rule:evenodd;fill:#2e2e2c;fill-opacity:1" />
			</g>
		</g>
	</g>
</g>
<text
   xml:space="preserve"
   style="font-size:40px;font-style:normal;font-weight:normal;line-height:125%;letter-spacing:0px;word-spacing:0px;fill:#2e2e2c;fill-opacity:1;stroke:none;font-family:Sans"
   x="53.074219"
   y="238.43359"
   id="text4374"
   sodipodi:linespacing="125%"><tspan
     sodipodi:role="line"
     id="tspan4376"
     x="53.074219"
     y="238.43359">NodeBots</tspan></text>
</svg>